<svg xmlns="http://www.w3.org/2000/svg" viewBox="0 0 570.05 61.06">
  <defs>
    <style>
      .cls-1 {
        fill: #333;
      }

      .cls-2 {
        fill: #373737;
      }
    </style>
  </defs>
  <title>logo_optime_1</title>
  <g id="Layer_2" data-name="Layer 2">
    <g id="Layer_1-2" data-name="Layer 1">
      <g>
        <path class="cls-1" d="M0,16.17H3.71v5.3a14.89,14.89,0,0,1,5.06-4.53,13.44,13.44,0,0,1,6.38-1.51,14.23,14.23,0,0,1,10.51,4.43A14.62,14.62,0,0,1,30,30.51a14.89,14.89,0,0,1-4.33,10.8,14.05,14.05,0,0,1-10.44,4.44,14.05,14.05,0,0,1-6.33-1.43A15.93,15.93,0,0,1,3.71,40v15.5H0ZM14.84,19a10.9,10.9,0,0,0-8.1,3.36,11.48,11.48,0,0,0-3.29,8.36,11.87,11.87,0,0,0,1.47,5.9,10.71,10.71,0,0,0,4.2,4.16,11.63,11.63,0,0,0,5.78,1.54,10.89,10.89,0,0,0,5.62-1.55,11.36,11.36,0,0,0,4.19-4.33,11.69,11.69,0,0,0,0-11.65A11.17,11.17,0,0,0,14.84,19Z"/>
        <g>
          <path class="cls-1" d="M73.82,16.17h3.82L86.47,37.1l9.2-20.93h.67L105.6,37.1l9-20.93h3.86L105.94,45h-.69L96,24.36,86.82,45h-.69Z"/>
          <path class="cls-1" d="M147.08,35.44l3.13,1.64A17.05,17.05,0,0,1,146.65,42a14.12,14.12,0,0,1-4.54,2.82,15.82,15.82,0,0,1-5.7,1q-7.05,0-11-4.62a15.6,15.6,0,0,1-4-10.45,15.41,15.41,0,0,1,3.37-9.78,13.77,13.77,0,0,1,11.43-5.46A14.22,14.22,0,0,1,148,21a15.62,15.62,0,0,1,3.18,9.86H125.22a11.73,11.73,0,0,0,3.21,8.23,10.24,10.24,0,0,0,7.67,3.21,12.34,12.34,0,0,0,4.28-.77,11.27,11.27,0,0,0,3.54-2A17.28,17.28,0,0,0,147.08,35.44Zm0-7.76a12.31,12.31,0,0,0-2.16-4.74,10.23,10.23,0,0,0-3.75-2.86A11.49,11.49,0,0,0,136.26,19a10.57,10.57,0,0,0-7.3,2.73,12.33,12.33,0,0,0-3.37,6Z"/>
          <path class="cls-1" d="M156.67,16.17h3.79v4.21A13.29,13.29,0,0,1,164,16.66,7.06,7.06,0,0,1,168,15.43a6.77,6.77,0,0,1,3.29,1l-1.93,3.13a5.18,5.18,0,0,0-2-.5,5.36,5.36,0,0,0-3.58,1.52,9.63,9.63,0,0,0-2.62,4.73q-.69,2.46-.69,10V45h-3.79Z"/>
          <path class="cls-1" d="M198.67,35.44l3.13,1.64A17.05,17.05,0,0,1,198.24,42a14.12,14.12,0,0,1-4.54,2.82,15.82,15.82,0,0,1-5.7,1q-7.05,0-11-4.62a15.6,15.6,0,0,1-4-10.45,15.41,15.41,0,0,1,3.37-9.78,13.77,13.77,0,0,1,11.43-5.46A14.22,14.22,0,0,1,199.57,21a15.62,15.62,0,0,1,3.18,9.86H176.81A11.73,11.73,0,0,0,180,39.11a10.24,10.24,0,0,0,7.67,3.21,12.34,12.34,0,0,0,4.28-.77,11.27,11.27,0,0,0,3.54-2A17.28,17.28,0,0,0,198.67,35.44Zm0-7.76a12.31,12.31,0,0,0-2.16-4.74,10.23,10.23,0,0,0-3.75-2.86A11.49,11.49,0,0,0,187.85,19a10.57,10.57,0,0,0-7.3,2.73,12.33,12.33,0,0,0-3.37,6Z"/>
          <path class="cls-1" d="M238.44,5V45h-3.66V40a15.9,15.9,0,0,1-5.23,4.27,14.62,14.62,0,0,1-16.8-3,14.88,14.88,0,0,1-4.33-10.8,14.61,14.61,0,0,1,4.37-10.65,14.26,14.26,0,0,1,10.52-4.43,13.6,13.6,0,0,1,6.43,1.51,14.63,14.63,0,0,1,5,4.53V5ZM223.62,19a11.19,11.19,0,0,0-9.89,5.8,11.68,11.68,0,0,0,0,11.65,11.37,11.37,0,0,0,4.19,4.33,11,11,0,0,0,5.65,1.55,11.58,11.58,0,0,0,5.77-1.54,10.75,10.75,0,0,0,4.19-4.16,11.87,11.87,0,0,0,1.47-5.9,11.47,11.47,0,0,0-3.3-8.36A10.92,10.92,0,0,0,223.62,19Z"/>
        </g>
        <g>
          <path class="cls-1" d="M264.3,45V5H268V21.13a15.65,15.65,0,0,1,5.21-4.28,14.61,14.61,0,0,1,16.77,3,14.86,14.86,0,0,1,4.33,10.77A14.64,14.64,0,0,1,290,41.32a14.23,14.23,0,0,1-10.51,4.43,13.44,13.44,0,0,1-6.38-1.51A14.88,14.88,0,0,1,268,39.7V45Zm14.84-2.83a11.17,11.17,0,0,0,9.87-5.8,11.77,11.77,0,0,0,0-11.69,11.37,11.37,0,0,0-4.19-4.33,10.88,10.88,0,0,0-5.62-1.55,11.54,11.54,0,0,0-5.78,1.55,10.79,10.79,0,0,0-4.2,4.17,11.89,11.89,0,0,0-1.47,5.91A11.5,11.5,0,0,0,271,38.8,10.89,10.89,0,0,0,279.14,42.17Z"/>
          <path class="cls-1" d="M298,16.17h3.92l9.91,22.2,9.62-22.2h3.95l-17.2,39.38h-3.92l5.55-12.73Z"/>
        </g>
      </g>
      <rect class="cls-2" x="50.44" y="4.66" width="5.54" height="25.13"/>
      <path class="cls-2" d="M64.53,16.11l-3.17,3.21a13.55,13.55,0,1,1-16.23.06L42,16.14a18,18,0,1,0,22.53,0"/>
      <g>
        <path class="cls-1" d="M334.65,30.63A17.35,17.35,0,0,1,340,17.55q5.35-5.14,14.47-5.14,10.42,0,15.74,6a17.5,17.5,0,0,1,4.28,12,17.4,17.4,0,0,1-5.31,13.11q-5.31,5.11-14.68,5.11-8.36,0-13.52-4.25A17,17,0,0,1,334.65,30.63Zm13.32,0q0,4.64,1.88,6.86a6.15,6.15,0,0,0,9.44,0q1.84-2.19,1.84-7,0-4.51-1.86-6.71a5.79,5.79,0,0,0-4.6-2.2,6,6,0,0,0-4.8,2.24Q348,26,348,30.6Z"/>
        <path class="cls-1" d="M378.41,61.06V13.19h12.44v5.13a16.51,16.51,0,0,1,4.73-4.37A13.56,13.56,0,0,1,402,12.41a12.45,12.45,0,0,1,10.76,5.32,22,22,0,0,1,3.8,13.16q0,8.65-4.15,13.21A13.56,13.56,0,0,1,402,48.66a14.52,14.52,0,0,1-5.6-1,13.33,13.33,0,0,1-4.52-3.1V61.06Zm13.32-30.43q0,4.11,1.73,6.11a5.54,5.54,0,0,0,4.38,2,4.84,4.84,0,0,0,3.89-1.91q1.57-1.91,1.57-6.48,0-4.21-1.63-6.19a5,5,0,0,0-4-2,5.35,5.35,0,0,0-4.25,2Q391.73,26.16,391.73,30.63Z"/>
        <path class="cls-1" d="M436.44,0V13.19h7.31v9.73h-7.31V35.21a6.6,6.6,0,0,0,.42,2.93,2.43,2.43,0,0,0,2.29,1.11,14.57,14.57,0,0,0,4.11-.85l1,9.17A43.26,43.26,0,0,1,435,48.66q-5,0-7.31-1.27a7.75,7.75,0,0,1-3.48-3.86q-1.13-2.59-1.13-8.4V22.92h-4.9V13.19h4.9V6.82Z"/>
        <path class="cls-1" d="M448,0h13.29V9H448Zm0,13.19h13.29V47.87H448Z"/>
        <path class="cls-1" d="M467.31,13.19h12.41v5.06a17.33,17.33,0,0,1,5.41-4.51,14.85,14.85,0,0,1,6.59-1.34,12.62,12.62,0,0,1,6.57,1.47,10.94,10.94,0,0,1,4,4.38A20,20,0,0,1,508,13.63a14.75,14.75,0,0,1,6.36-1.22q5.58,0,8.71,3.31t3.13,10.37V47.87H512.83V28.12a5.56,5.56,0,0,0-.91-3.49,4,4,0,0,0-3.32-1.8,4.7,4.7,0,0,0-3.78,1.7q-1.43,1.7-1.43,5.45V47.87H490.07V28.77a12,12,0,0,0-.26-3.1,4.24,4.24,0,0,0-1.47-2.11,3.94,3.94,0,0,0-2.46-.8,4.73,4.73,0,0,0-3.77,1.73q-1.48,1.73-1.47,5.68v17.7H467.31Z"/>
        <path class="cls-1" d="M570,33.83H543.4a8.6,8.6,0,0,0,1.73,4.77,6.3,6.3,0,0,0,5,2.25,7.56,7.56,0,0,0,3.72-1,8.76,8.76,0,0,0,2.32-2.19l13.09,1.21a18.76,18.76,0,0,1-7.25,7.5q-4.25,2.27-12.18,2.27-6.89,0-10.84-1.94a15.92,15.92,0,0,1-6.55-6.17,18.63,18.63,0,0,1-2.6-9.94q0-8.13,5.21-13.16t14.38-5q7.45,0,11.76,2.25a15.22,15.22,0,0,1,6.56,6.53Q570,25.47,570,32.33Zm-13.52-6.37q-.39-3.85-2.07-5.52a6.51,6.51,0,0,0-9.49.85,9.21,9.21,0,0,0-1.54,4.67Z"/>
      </g>
    </g>
  </g>
</svg>
